<?xml version="1.0" encoding="UTF-8"?>
<svg version="1.1" xmlns="http://www.w3.org/2000/svg" width="80" height="80">
<path d="M0 0 C5.6030445 4.30633991 9.07159923 9.17125119 12.25 15.4375 C12.78947266 16.49710938 12.78947266 16.49710938 13.33984375 17.578125 C16.87261631 26.10887533 16.55155633 37.57140106 13.75 46.25 C9.14359491 56.92337766 2.60839842 64.18345687 -7.75 69.4375 C-8.80960938 69.97697266 -8.80960938 69.97697266 -9.890625 70.52734375 C-18.42137533 74.06011631 -29.88390106 73.73905633 -38.5625 70.9375 C-49.23587766 66.33109491 -56.49595687 59.79589842 -61.75 49.4375 C-62.10964844 48.73109375 -62.46929687 48.0246875 -62.83984375 47.296875 C-66.37261631 38.76612467 -66.05155633 27.30359894 -63.25 18.625 C-58.64359491 7.95162234 -52.10839842 0.69154313 -41.75 -4.5625 C-41.04359375 -4.92214844 -40.3371875 -5.28179687 -39.609375 -5.65234375 C-26.35102569 -11.14291971 -11.47653994 -7.5835481 0 0 Z " fill="#E9DCFE" transform="translate(64.75,7.5625)"/>
<path d="M0 0 C6.4689722 3.66832819 10.66257825 7.88115184 14.4375 14.3125 C14.4375 15.3025 14.4375 16.2925 14.4375 17.3125 C3.45048398 26.34855056 -7.74629405 28.53117426 -21.5625 27.3125 C-29.1818856 25.64546508 -35.3482117 21.91567652 -41.5625 17.3125 C-40.56183257 11.27754696 -38.14254667 7.16810007 -33.18359375 3.6015625 C-22.42874757 -2.96995305 -11.9725157 -5.7639958 0 0 Z " fill="#E8DBFE" transform="translate(53.5625,52.6875)"/>
<path d="M0 0 C3.3258409 2.062783 6.23502468 4.47004936 8 8 C8.79674298 14.71540516 8.79674298 14.71540516 6.73046875 18.046875 C3.40766769 21.95985727 1.56547947 23.81426515 -3.6875 24.4375 C-8.22744391 24.41264629 -10.43982485 22.53738613 -13.65234375 19.5078125 C-16.20699781 16.64956187 -16.44655204 13.96600649 -16.42578125 10.171875 C-15.65151767 6.2224204 -12.92865376 3.61757913 -10 1 C-6.7374887 -0.63125565 -3.5120384 -0.68851113 0 0 Z " fill="#573F90" transform="translate(44,20)"/>
<path d="M0 0 C6.4689722 3.66832819 10.66257825 7.88115184 14.4375 14.3125 C14.4375 15.3025 14.4375 16.2925 14.4375 17.3125 C13.4475 17.6425 12.4575 17.9725 11.4375 18.3125 C11.025 17.64863281 10.6125 16.98476562 10.1875 16.30078125 C5.68094811 9.41018294 1.54309918 4.69526645 -6.5625 2.5 C-17.03274929 1.84560942 -24.29015975 2.54899143 -32.57421875 9.359375 C-35.3618287 12.09769519 -36.90772262 14.7871047 -38.5625 18.3125 C-39.5525 17.9825 -40.5425 17.6525 -41.5625 17.3125 C-41.11699625 12.41195873 -38.93336576 8.78273368 -35.5625 5.3125 C-24.57529052 -2.58963096 -12.83784859 -6.1805979 0 0 Z " fill="#553E8F" transform="translate(53.5625,52.6875)"/>
<path d="M0 0 C2.78198341 2.95585737 3 4.56355026 3 8.625 C2 12 2 12 -0.125 14 C-3.91476998 15.31818086 -6.16245608 15.13705005 -10 14 C-12.78198341 11.04414263 -13 9.43644974 -13 5.375 C-12 2 -12 2 -9.875 0 C-6.08523002 -1.31818086 -3.83754392 -1.13705005 0 0 Z " fill="#E7DAFC" transform="translate(45,25)"/>
</svg>
